<svg xmlns="http://www.w3.org/2000/svg" viewBox="0 0 192 192" width="192" height="192">
  <!-- Fondo circular -->
  <circle cx="96" cy="96" r="90" fill="#4ECDC4" stroke="#1A535C" stroke-width="4"/>
  
  <!-- Fondo del formulario -->
  <rect x="40" y="30" width="112" height="132" rx="8" fill="white" stroke="#1A535C" stroke-width="3"/>
  
  <!-- Título del formulario -->
  <rect x="50" y="40" width="92" height="8" rx="4" fill="#1A535C"/>
  
  <!-- Líneas del formulario -->
  <rect x="50" y="60" width="92" height="3" fill="#1A535C"/>
  <rect x="50" y="70" width="72" height="3" fill="#1A535C"/>
  <rect x="50" y="80" width="82" height="3" fill="#1A535C"/>
  <rect x="50" y="90" width="68" height="3" fill="#1A535C"/>
  <rect x="50" y="100" width="76" height="3" fill="#1A535C"/>
  
  <!-- Campo de texto grande -->
  <rect x="50" y="110" width="92" height="20" fill="white" stroke="#1A535C" stroke-width="2"/>
  
  <!-- Botón de envío -->
  <rect x="50" y="140" width="40" height="12" rx="6" fill="#52c41a" stroke="#1A535C" stroke-width="1"/>
  <text x="70" y="149" font-family="Arial, sans-serif" font-size="8" fill="white" text-anchor="middle">ENVIAR</text>
  
  <!-- Lápiz para editar -->
  <path d="M130 35 L150 15 L170 35 L150 55 Z" fill="#FF6B6B"/>
  <circle cx="160" cy="25" r="3" fill="white"/>
  
  <!-- Ícono de usuario -->
  <circle cx="160" cy="80" r="12" fill="#722ed1"/>
  <path d="M160 95 Q160 105 150 105 Q140 105 140 95 Q140 85 150 85 Q160 85 160 95" fill="#722ed1"/>
  
  <!-- Texto "Grupo1" -->
  <text x="96" y="180" font-family="Arial, sans-serif" font-size="16" font-weight="bold" fill="#1A535C" text-anchor="middle">Grupo1</text>
</svg>
